<svg width="668" height="140" viewBox="0 0 668 140" fill="none" xmlns="http://www.w3.org/2000/svg">
<path d="M106.556 140L94.7563 106.8H29.5563L17.7563 140H0.75625L52.7563 -9.53674e-06H71.7563L123.556 140H106.556ZM34.9563 92H89.3563L62.7563 17.6H61.5563L34.9563 92ZM149.894 140V-9.53674e-06H166.094V124.4H246.494V140H149.894ZM287.431 140V-9.53674e-06H337.831C363.231 -9.53674e-06 380.631 16.6 380.631 42C380.631 67.2 362.431 84.6 337.831 84.6H303.631V140H287.431ZM303.631 70.2H336.431C353.231 70.2 364.031 58.2 364.031 42C364.031 26 353.231 14.4 336.431 14.4H303.631V70.2ZM418.569 140V-9.53674e-06H434.769V61.4H505.169V-9.53674e-06H521.369V140H505.169V76.2H434.769V140H418.569ZM650.306 140L638.506 106.8H573.306L561.506 140H544.506L596.506 -9.53674e-06H615.506L667.306 140H650.306ZM578.706 92H633.106L606.506 17.6H605.306L578.706 92Z" fill="white"/>
</svg>
