<svg width="1176" height="146" viewBox="0 0 1176 146" fill="none" xmlns="http://www.w3.org/2000/svg">
<path d="M0.681252 143V2.99999H51.0813C76.4813 2.99999 93.8813 19.6 93.8813 45C93.8813 70.2 75.6813 87.6 51.0813 87.6H16.8813V143H0.681252ZM16.8813 73.2H49.6813C66.4813 73.2 77.2813 61.2 77.2813 45C77.2813 29 66.4813 17.4 49.6813 17.4H16.8813V73.2ZM134.619 143V2.99999H182.619C211.219 2.99999 228.219 19.8 228.219 44.4C228.219 65 214.819 80.2 199.019 84.8L231.819 143H213.019L182.019 86.4H150.819V143H134.619ZM150.819 72H182.619C199.019 72 211.419 62.8 211.419 44.4C211.419 29.6 201.419 17.4 181.619 17.4H150.819V72ZM319.156 145.6C288.356 145.6 266.956 124 266.956 95.2V50.8C266.956 22 288.356 0.399988 319.156 0.399988C349.956 0.399988 371.356 22 371.356 50.8V95.2C371.356 124 349.956 145.6 319.156 145.6ZM319.156 130.2C344.156 130.2 355.356 112.4 355.356 94.2V51.8C355.356 33.8 343.956 15.8 319.156 15.8C294.356 15.8 282.956 33.8 282.956 51.8V94.2C282.956 112.4 294.156 130.2 319.156 130.2ZM447.094 143V17.8H401.894V2.99999H508.494V17.8H463.294V143H447.094ZM591.031 145.6C560.231 145.6 538.831 124 538.831 95.2V50.8C538.831 22 560.231 0.399988 591.031 0.399988C621.831 0.399988 643.231 22 643.231 50.8V95.2C643.231 124 621.831 145.6 591.031 145.6ZM591.031 130.2C616.031 130.2 627.231 112.4 627.231 94.2V51.8C627.231 33.8 615.831 15.8 591.031 15.8C566.231 15.8 554.831 33.8 554.831 51.8V94.2C554.831 112.4 566.031 130.2 591.031 130.2ZM718.969 143V17.8H673.769V2.99999H780.369V17.8H735.169V143H718.969ZM871.106 89.2V127.4H902.106V143H823.906V127.4H854.706V89.2L805.706 2.99999H823.306L862.106 72.4H863.306L901.706 2.99999H920.106L871.106 89.2ZM952.244 143V2.99999H1002.64C1028.04 2.99999 1045.44 19.6 1045.44 45C1045.44 70.2 1027.24 87.6 1002.64 87.6H968.444V143H952.244ZM968.444 73.2H1001.24C1018.04 73.2 1028.84 61.2 1028.84 45C1028.84 29 1018.04 17.4 1001.24 17.4H968.444V73.2ZM1093.78 143V2.99999H1173.58V17.8H1109.98V64.4H1164.78V79H1109.98V128.4H1175.78V143H1093.78Z" fill="white"/>
</svg>
