<svg width="1455" height="146" viewBox="0 0 1455 146" fill="none" xmlns="http://www.w3.org/2000/svg">
<path d="M50.1438 145.6C22.3438 145.6 0.143751 127.4 0.143751 101.4H16.3438C16.3438 117.6 29.5438 130.6 50.7438 130.6C69.1438 130.6 82.3437 121.6 82.3437 107C82.3437 63.2 4.94375 93.8 4.94375 37.8C4.94375 17.8 21.5438 0.399988 49.7438 0.399988C70.9438 0.399988 95.7438 12 95.7438 41H79.1438C79.1438 25 68.5438 15.2 49.5438 15.2C29.7438 15.2 21.1438 26.2 21.1438 37.8C21.1438 76 98.7438 49.4 98.7438 106C98.7438 128 80.7438 145.6 50.1438 145.6ZM185.281 145.6C151.681 145.6 133.081 124.6 133.081 92.8V2.99999H149.281V92.6C149.281 115.8 161.681 130.6 185.281 130.6C208.881 130.6 221.481 115.8 221.481 92.4V2.99999H237.481V92.6C237.481 124.2 218.481 145.6 185.281 145.6ZM267.619 143V2.99999H290.419L320.619 125.2H321.819L352.019 2.99999H374.819V143H359.219V38.6H358.019L332.819 143H309.619L284.419 38.6H283.219V143H267.619ZM403.556 143V2.99999H426.356L456.556 125.2H457.756L487.956 2.99999H510.756V143H495.156V38.6H493.956L468.756 143H445.556L420.356 38.6H419.156V143H403.556ZM552.094 143V2.99999H631.894V17.8H568.294V64.4H623.094V79H568.294V128.4H634.094V143H552.094ZM680.431 143V2.99999H728.431C757.031 2.99999 774.031 19.8 774.031 44.4C774.031 65 760.631 80.2 744.831 84.8L777.631 143H758.831L727.831 86.4H696.631V143H680.431ZM696.631 72H728.431C744.831 72 757.231 62.8 757.231 44.4C757.231 29.6 747.231 17.4 727.431 17.4H696.631V72ZM957.506 143V125.6C957.506 107 967.506 95.4 985.706 83.8L1011.11 67.8C1020.31 62 1026.71 53.6 1026.71 41.2C1026.71 26.6 1016.91 15.6 999.506 15.6C983.706 15.6 972.506 27.2 972.506 41.4H957.306C957.306 22.2 972.106 0.399988 999.906 0.399988C1026.51 0.399988 1043.31 20 1043.31 40.8C1043.31 57 1035.71 69.6 1019.31 80L994.706 95.6C978.306 106 973.706 114 973.706 125V128.2H1044.51V143H957.506ZM1136.84 145.6C1114.04 145.6 1091.64 129 1091.64 101.2V44.8C1091.64 17 1114.04 0.399988 1136.84 0.399988C1159.64 0.399988 1182.04 17 1182.04 44.8V101.2C1182.04 129 1159.64 145.6 1136.84 145.6ZM1136.84 130.2C1153.84 130.2 1166.04 117.4 1166.04 100.2V45.8C1166.04 28.8 1153.64 15.8 1136.84 15.8C1120.04 15.8 1107.64 28.8 1107.64 45.8V100.2C1107.64 117.4 1119.84 130.2 1136.84 130.2ZM1137.04 83.8C1130.84 83.8 1125.64 78.8 1125.64 72.6C1125.64 66.4 1130.84 61.4 1137.04 61.4C1143.24 61.4 1148.24 66.4 1148.24 72.6C1148.24 78.8 1143.24 83.8 1137.04 83.8ZM1229.38 143V125.6C1229.38 107 1239.38 95.4 1257.58 83.8L1282.98 67.8C1292.18 62 1298.58 53.6 1298.58 41.2C1298.58 26.6 1288.78 15.6 1271.38 15.6C1255.58 15.6 1244.38 27.2 1244.38 41.4H1229.18C1229.18 22.2 1243.98 0.399988 1271.78 0.399988C1298.38 0.399988 1315.18 20 1315.18 40.8C1315.18 57 1307.58 69.6 1291.18 80L1266.58 95.6C1250.18 106 1245.58 114 1245.58 125V128.2H1316.38V143H1229.38ZM1408.32 145.6C1384.12 145.6 1364.72 130.2 1362.92 106.6H1378.12C1380.72 122 1392.32 130.6 1407.72 130.6C1424.52 130.6 1438.12 117.6 1438.12 98.8C1438.12 80.8 1425.32 68.2 1406.12 68.2C1390.52 68.2 1382.92 78 1380.52 82H1365.72L1370.52 2.99999H1445.72V17.8H1384.72L1381.72 62.8H1382.92C1382.92 62.8 1391.52 53.4 1408.92 53.4C1435.52 53.4 1454.52 74.4 1454.52 98.8C1454.52 125.4 1434.12 145.6 1408.32 145.6Z" fill="white"/>
</svg>
